<?xml version="1.0" ?><svg xmlns="http://www.w3.org/2000/svg" width="81.200996mm" height="80.589226mm" viewBox="0 0 81.200996 80.589226">
    <path d="m 278.13058,-954.9492 c 0,0 8.30289,-12.10879 9.49881,-19.49826 1.19591,-7.38947 2.73711,-44.97854 2.73711,-44.97854 l 59.8678,1.1799 c 0,0 4.23201,31.46215 4.39288,38.85162 0.16113,7.38947 -2.99006,34.29788 -2.99006,34.29788 0,0 -54.83093,3.00133 -59.31588,2.40107 -4.48469,-0.60026 -6.66988,-3.68437 -6.66988,-3.68437 l -0.39079,-6.31315 z" fill="#FFFFFF" paint-order="markers stroke fill" transform="translate(-180.89103,-41.506276) translate(-94.909337,1063.4136)"/>
    <path d="m 356.82444,-973.52693 c -0.24767,3.24318 -1.00448,10.02973 -1.68172,15.08136 -0.67724,5.05174 -1.15847,10.25823 -1.06943,11.56994 0.10077,1.48495 -0.22054,2.71767 -0.85174,3.26715 -0.80033,0.69654 -7.50336,1.06073 -31.85354,1.73073 -29.11712,0.80185 -30.93111,0.78322 -32.47076,-0.32442 -1.2239,-0.88042 -1.44882,-1.36449 -0.90148,-1.94019 0.53373,-0.56124 1.09151,-0.5838 2.08052,-0.0839 0.90748,0.45859 9.2537,0.49583 25.41513,0.1134 23.75009,-0.5573 33.44386,-1.1822 32.40014,-2.07386 -0.2939,-0.25097 -3.028,-0.12118 -6.07579,0.28906 -5.10169,0.68587 -17.4792,0.78365 -46.09802,0.36405 l -8.57326,-0.12574 c -2.48289,0.0986 -1.9036,-0.11554 -2.15317,-2.45675 -0.25504,-2.39216 -0.30948,-2.43439 -3.59615,-2.79215 -3.91784,-0.42646 -6.06757,-2.08141 -5.50669,-4.2391 0.20685,-0.79568 1.44973,-3.09054 2.76184,-5.0998 4.87622,-7.46616 5.67149,-10.21371 6.67097,-23.04623 0.92996,-11.94061 1.53931,-21.04002 1.94733,-29.08232 0.2292,-4.5176 0.70379,-7.9917 1.12966,-8.2689 1.83999,-1.1978 19.74125,-1.6181 39.8697,-0.9355 11.69941,0.3961 21.77982,0.9032 22.40081,1.1267 0.62102,0.2234 1.33189,1.0364 1.57971,1.8067 0.24782,0.7702 1.26322,2.997 2.25639,4.9483 1.77873,3.4945 1.81298,3.7778 2.28786,18.91218 0.26521,8.45062 0.27949,18.01816 0.0317,21.26113 z m -3.67373,-0.40432 c -0.17084,0.45379 -0.15359,1.18922 0.0383,1.63428 0.19193,0.44506 0.3316,0.0741 0.3105,-0.82482 -0.0211,-0.89884 -0.17813,-1.26292 -0.34885,-0.80946 z m -0.78121,5.41396 c -0.24099,1.62579 -0.54619,4.46548 -0.5612,6.30001 -0.0337,4.1253 0.27078,4.05142 0.74031,-0.0913 0.20435,-1.80337 0.57204,-4.77386 0.67667,-6.38866 0.13478,-2.08025 -0.16955,-4.44969 -0.85578,0.17992 z m -4.84512,-47.64741 c -0.98907,0.01 -7.5442,-0.2944 -14.56741,-0.6822 -12.47242,-0.6293 -24.17995,-0.7289 -36.52825,-0.7552 -5.04456,0.1175 -4.46462,-1.4031 -4.5231,3.3026 -0.97687,15.17387 0.99537,31.3562 -2.90869,46.05291 -0.64939,2.44459 -2.11497,5.36717 -3.34346,6.88086 -1.17786,1.45144 -2.45433,3.26613 -2.83668,4.03253 l -0.6952,1.39331 23.67775,-0.0889 c 22.40674,-0.0844 34.52153,-0.86217 35.83086,-2.3 0.86283,-0.94757 3.69142,-9.20227 4.78801,-13.9729 3.78691,-15.3058 1.56993,-24.51942 2.85428,-39.52131 0.45633,-5.1197 -0.60544,-4.3783 -1.74811,-4.3417 z m -1.86224,60.74132 c -3.12366,3.948 -6.57893,4.45801 -33.60283,4.96032 -16.50731,0.30753 -23.35186,0.64268 -23.17467,1.13485 0.17235,0.47945 9.31996,0.58586 29.11187,0.33857 32.56376,-0.4069 29.42748,0.19849 29.40597,-5.67725 l -0.0108,-2.94277 z" transform="translate(-180.89103,-41.506276) translate(-94.909337,1063.4136)" fill="#000000"/>
</svg>